<svg width="24px" height="24px" viewBox="0 0 100 100" xmlns="http://www.w3.org/2000/svg">
    <path fill="#1ed2ff"
        d="M92.5 53.9L79.2 42.2 67.4 55.5l7.1-.4c-1.9 9.1-8.9 16.6-18 19.1-11 2.9-22.5-1.9-28.2-11.7l-9 5.2C25.8 78.8 37.6 85.4 50 85.4c3 0 6.1-.4 9.1-1.2 13.9-3.8 24.2-15.6 26-29.8l7.4-.5z">
    </path>
    <path fill="white"        
        d="M40.8 15.8C27 19.6 16.7 31.4 14.9 45.6l-7.4.5 13.3 11.7 11.8-13.3-7.1.4c1.9-9.1 8.9-16.6 18-19.1 10.9-2.9 22.5 1.9 28.1 11.6l9-5.2c-8-13.7-24.3-20.5-39.8-16.4z">
    </path>
</svg>